HIERARCHY
ROOT root
{
	OFFSET 0.000000 0.000000 0.000000
	CHANNELS 6 Xposition Yposition Zposition Zrotation Yrotation Xrotation
	JOINT lhip
	{
		OFFSET 0.058581 -0.082280 -0.017664
		CHANNELS 3 Zrotation Yrotation Xrotation
		JOINT lknee
		{
			OFFSET 0.043451 -0.386469 0.008037
			CHANNELS 3 Zrotation Yrotation Xrotation
			JOINT lankle
			{
				OFFSET -0.014790 -0.426874 -0.037428
				CHANNELS 3 Zrotation Yrotation Xrotation
				JOINT ltoe
				{
					OFFSET 0.041054 -0.060286 0.122042
					CHANNELS 3 Zrotation Yrotation Xrotation
					End Site
					{
						OFFSET 0.000000 0.000000 0.000000
					}
				}
			}
		}
	}
	JOINT rhip
	{
		OFFSET -0.060310 -0.090513 -0.013543
		CHANNELS 3 Zrotation Yrotation Xrotation
		JOINT rknee
		{
			OFFSET -0.043257 -0.383688 -0.004843
			CHANNELS 3 Zrotation Yrotation Xrotation
			JOINT rankle
			{
				OFFSET 0.019056 -0.420046 -0.034562
				CHANNELS 3 Zrotation Yrotation Xrotation
				JOINT rtoe
				{
					OFFSET -0.034840 -0.062106 0.130323
					CHANNELS 3 Zrotation Yrotation Xrotation
					End Site
					{
						OFFSET 0.000000 0.000000 0.000000
					}
				}
			}
		}
	}
	JOINT lowerback
	{
		OFFSET 0.004439 0.124404 -0.038385
		CHANNELS 3 Zrotation Yrotation Xrotation
		JOINT upperback
		{
			OFFSET 0.004488 0.137956 0.026820
			CHANNELS 3 Zrotation Yrotation Xrotation
			JOINT chest
			{
				OFFSET -0.002265 0.056032 0.002855
				CHANNELS 3 Zrotation Yrotation Xrotation
				JOINT lowerneck
				{
					OFFSET -0.013390 0.211636 -0.033468
					CHANNELS 3 Zrotation Yrotation Xrotation
					JOINT upperneck
					{
						OFFSET 0.010113 0.088937 0.050410
						CHANNELS 3 Zrotation Yrotation Xrotation
						End Site
						{
							OFFSET 0.000000 0.000000 0.000000
						}
					}
				}
				JOINT lclavicle
				{
					OFFSET 0.071702 0.114000 -0.018898
					CHANNELS 3 Zrotation Yrotation Xrotation
					JOINT lshoulder
					{
						OFFSET 0.122921 0.045205 -0.019046
						CHANNELS 3 Zrotation Yrotation Xrotation
						JOINT lelbow
						{
							OFFSET 0.255332 -0.015649 -0.022946
							CHANNELS 3 Zrotation Yrotation Xrotation
							JOINT lwrist
							{
								OFFSET 0.265709 0.012698 -0.007375
								CHANNELS 3 Zrotation Yrotation Xrotation
								End Site
								{
									OFFSET 0.000000 0.000000 0.000000
								}
							}
						}
					}
				}
				JOINT rclavicle
				{
					OFFSET -0.082954 0.112472 -0.023707
					CHANNELS 3 Zrotation Yrotation Xrotation
					JOINT rshoulder
					{
						OFFSET -0.113228 0.046853 -0.008472
						CHANNELS 3 Zrotation Yrotation Xrotation
						JOINT relbow
						{
							OFFSET -0.260127 -0.014369 -0.031269
							CHANNELS 3 Zrotation Yrotation Xrotation
							JOINT rwrist
							{
								OFFSET -0.269108 0.006794 -0.006027
								CHANNELS 3 Zrotation Yrotation Xrotation
								End Site
								{
									OFFSET 0.000000 0.000000 0.000000
								}
							}
						}
					}
				}
			}
		}
	}
}
MOTION
Frames: 7
Frame Time: 0.033333
-0.024253 0.272959 0.998124 78.041445 -0.805018 83.485998 3.713615 6.069486 -1.166117 0.790576 16.434167 16.428111 -1.740669 0.320659 -7.601469 0.000000 -0.000000 0.000000 -3.212006 -2.582779 -6.942228 -5.376050 -8.580516 19.994715 3.739943 5.767304 -5.774110 0.000000 -0.000000 0.000000 1.404658 -0.610167 16.510490 -3.452356 -5.354698 13.717737 -1.152695 -0.421459 -2.733949 -1.568425 5.603580 12.688775 9.262210 16.418394 6.983220 -16.394188 -29.617291 -2.400874 -63.240895 -34.495312 7.216781 132.640437 -50.239841 -94.947522 -37.800601 3.838393 -4.667752 3.337600 25.944854 -1.768018 77.493619 24.572368 16.767515 -158.646253 54.592106 -108.831191 65.698274 -3.037537 -3.417704 
-0.024210 0.274162 0.996611 78.768269 -0.819612 83.207220 3.612355 6.078418 -1.362965 0.840935 15.858582 17.077357 -1.672618 0.191497 -7.954145 0.000000 -0.000000 0.000000 -3.410176 -2.581415 -7.022715 -5.505881 -8.872250 20.930598 3.728347 5.385719 -6.273907 0.000000 -0.000000 0.000000 0.882730 -0.698889 16.639153 -3.349785 -5.970447 13.976280 -1.010870 -1.323196 -2.717975 -1.072527 6.212646 12.832575 9.046389 17.410870 6.966777 -17.149936 -29.432532 -0.845601 -63.298412 -33.427286 6.871609 132.523234 -50.589734 -94.993883 -37.232193 3.926506 -4.641925 3.247920 25.439478 -2.438126 77.408341 24.884355 17.193077 -159.495358 53.635377 -110.963282 65.927660 -0.663332 -5.603053 
-0.023961 0.274982 0.994812 79.520766 -0.856737 82.986013 3.524951 6.097999 -1.554522 0.845781 15.230960 17.628765 -1.604048 0.064798 -8.383875 0.000000 -0.000000 0.000000 -3.573028 -2.533550 -7.199285 -5.669786 -9.143572 21.971034 3.473825 4.899932 -6.855000 0.000000 -0.000000 0.000000 0.350495 -0.873587 16.412641 -3.376886 -6.668817 14.455625 -0.978399 -1.923677 -2.601337 -0.559602 6.788233 13.358885 8.900457 18.220356 6.735190 -17.735655 -29.788273 0.411000 -63.082632 -31.729408 6.442670 132.794542 -50.407081 -95.044203 -37.161419 3.722081 -4.859919 3.293980 25.676639 -2.829887 76.950337 25.583792 17.115895 -159.878454 52.327451 -112.624574 66.508901 2.043111 -7.829475 
-0.024071 0.275752 0.993202 80.279175 -0.887762 82.644815 3.509019 6.117200 -1.696737 0.853547 14.684668 18.359033 -1.480594 -0.245747 -8.756344 0.000000 -0.000000 0.000000 -3.791072 -2.558414 -7.217580 -5.779701 -9.467766 22.930846 3.340232 4.552803 -7.399134 0.000000 -0.000000 0.000000 -0.014854 -1.091677 16.359968 -3.511835 -7.157816 15.173067 -1.078390 -2.282472 -2.747863 0.108464 7.019040 13.357875 8.804079 18.689851 7.351437 -18.428359 -29.788823 1.526829 -63.084039 -30.426854 6.294410 133.319909 -50.737661 -95.672340 -37.204555 3.365150 -4.999570 3.128860 25.968830 -3.208872 76.652962 26.549102 17.189422 -159.841718 50.642828 -113.698136 67.087505 4.566102 -9.331739 
-0.024044 0.275972 0.992036 81.033175 -0.952703 82.346810 3.427498 5.900115 -1.790046 0.887608 14.373415 18.917652 -1.393236 -0.457535 -9.131246 0.000000 -0.000000 0.000000 -3.967312 -2.684316 -7.132976 -5.956381 -9.792173 23.657080 3.245030 4.305221 -7.796963 0.000000 -0.000000 0.000000 -0.351037 -1.090050 16.639417 -3.594387 -7.414818 15.122492 -1.074882 -2.489454 -2.825223 0.544745 6.845740 14.005114 8.933556 19.184221 7.336564 -19.330601 -29.799907 2.801127 -63.198923 -29.065106 6.368370 134.323446 -51.149925 -96.881456 -37.229945 3.166582 -5.289735 3.035238 26.253070 -3.373077 76.121702 27.603826 16.814233 -159.770562 48.896392 -114.621958 67.412784 6.326908 -10.662974 
-0.023840 0.275661 0.991048 81.564862 -1.043533 82.173070 3.349550 5.833334 -1.859962 0.909134 14.090869 19.271870 -1.303882 -0.653509 -9.333480 0.000000 -0.000000 0.000000 -4.097680 -2.725365 -7.142512 -6.113534 -10.021055 24.256095 3.246486 4.082863 -8.116988 0.000000 -0.000000 0.000000 -0.642679 -0.847861 16.546030 -3.643441 -7.392096 15.173887 -1.151337 -2.587749 -2.774250 1.132937 6.685791 14.681863 9.141287 19.207852 7.360564 -20.098376 -29.742487 4.037290 -63.356753 -27.787911 6.686225 135.764966 -51.659630 -98.648508 -37.029449 2.649380 -5.557809 3.005014 26.619294 -3.589509 75.496515 29.071333 16.484382 -158.888228 47.411782 -114.876734 67.205950 7.435955 -12.072288 
-0.023824 0.275234 0.990441 82.232690 -1.078369 81.889889 3.374685 5.604522 -1.756888 0.827566 13.800027 19.404930 -1.296609 -0.795436 -9.407295 0.000000 -0.000000 0.000000 -4.231433 -2.839219 -6.869076 -6.120369 -10.393152 24.519068 3.099922 3.882978 -8.363934 0.000000 -0.000000 0.000000 -0.784463 -0.442227 16.439788 -3.598608 -7.310027 15.768679 -1.070327 -2.726953 -3.041605 1.484461 6.344476 15.058673 9.230672 18.849942 7.169733 -20.547586 -30.010829 5.213230 -63.766395 -26.324371 7.090740 137.158414 -51.887813 -100.582174 -36.825312 1.792290 -6.419120 2.572885 27.319759 -4.100949 74.609241 30.654178 15.896211 -157.545866 46.207119 -115.071331 67.779512 9.177719 -13.339805 
